<svg width="38" height="38" viewBox="0 0 38 38" fill="none" xmlns="http://www.w3.org/2000/svg">
<path fill-rule="evenodd" clip-rule="evenodd" d="M30.0833 9.5H26.9167C26.9167 5.13 23.37 1.58334 19 1.58334C14.63 1.58334 11.0833 5.13 11.0833 9.5H7.91667C6.175 9.5 4.75 10.925 4.75 12.6667V31.6667C4.75 33.4083 6.175 34.8333 7.91667 34.8333H30.0833C31.825 34.8333 33.25 33.4083 33.25 31.6667V12.6667C33.25 10.925 31.825 9.5 30.0833 9.5ZM19 4.75C21.6283 4.75 23.75 6.87167 23.75 9.5H14.25C14.25 6.87167 16.3717 4.75 19 4.75ZM11.0833 12.6667C11.0833 17.0367 14.63 20.5833 19 20.5833C23.37 20.5833 26.9167 17.0367 26.9167 12.6667H23.75C23.75 15.295 21.6283 17.4167 19 17.4167C16.3717 17.4167 14.25 15.295 14.25 12.6667H11.0833Z" fill="white"/>
</svg>
